HIERARCHY
ROOT newVegas:Hips
{
	OFFSET 0.000000 96.479958 0.000000
	CHANNELS 6 Xposition Yposition Zposition Xrotation Yrotation Zrotation
	JOINT newVegas:Pelvis
	{
		OFFSET 0.000000 0.000000 0.000000
		CHANNELS 3 Xrotation Yrotation Zrotation
		JOINT newVegas:LeftUpLeg
		{
			OFFSET 18.735201 -5.666702 -4.541200
			CHANNELS 3 Xrotation Yrotation Zrotation
			JOINT newVegas:LeftLeg
			{
				OFFSET -0.021200 -31.938179 0.493100
				CHANNELS 3 Xrotation Yrotation Zrotation
				JOINT newVegas:LeftFoot
				{
					OFFSET 0.021200 -31.938179 -4.336299
					CHANNELS 3 Xrotation Yrotation Zrotation
					JOINT newVegas:LeftToeBase
					{
						OFFSET 0.943001 -26.722000 15.023500
						CHANNELS 3 Xrotation Yrotation Zrotation
						End Site
						{
							OFFSET 0.000000 30.670183 0.000000
						}
					}
				}
				JOINT newVegas:Left_PantLeg
				{
					OFFSET 0.663870 -9.044666 -1.108900
					CHANNELS 3 Xrotation Yrotation Zrotation
					End Site
					{
						OFFSET 1.415995 20.635357 0.000000
					}
				}
			}
		}
		JOINT newVegas:RightUpLeg
		{
			OFFSET -18.735201 -5.666702 -4.541200
			CHANNELS 3 Xrotation Yrotation Zrotation
			JOINT newVegas:RightLeg
			{
				OFFSET 0.018946 -31.938133 0.493100
				CHANNELS 3 Xrotation Yrotation Zrotation
				JOINT newVegas:RightFoot
				{
					OFFSET -0.018946 -31.938126 -4.336299
					CHANNELS 3 Xrotation Yrotation Zrotation
					JOINT newVegas:RightToeBase
					{
						OFFSET -0.943001 -26.722004 15.023500
						CHANNELS 3 Xrotation Yrotation Zrotation
						End Site
						{
							OFFSET 0.000000 30.670187 0.000000
						}
					}
				}
				JOINT newVegas:Right_PantLeg
				{
					OFFSET -0.661674 -9.044716 -1.108900
					CHANNELS 3 Xrotation Yrotation Zrotation
					End Site
					{
						OFFSET -1.415958 20.635269 0.000000
					}
				}
			}
		}
	}
	JOINT newVegas:Spine
	{
		OFFSET 0.000000 10.199997 -0.299500
		CHANNELS 3 Xrotation Yrotation Zrotation
		JOINT newVegas:Spine1
		{
			OFFSET 0.000000 11.900002 -1.516600
			CHANNELS 3 Xrotation Yrotation Zrotation
			JOINT newVegas:Spine2
			{
				OFFSET 0.000000 13.600006 -2.842500
				CHANNELS 3 Xrotation Yrotation Zrotation
				JOINT newVegas:Neck
				{
					OFFSET 0.000000 9.624100 -2.890100
					CHANNELS 3 Xrotation Yrotation Zrotation
					JOINT newVegas:Head
					{
						OFFSET 0.000000 14.068802 -1.351900
						CHANNELS 3 Xrotation Yrotation Zrotation
						JOINT newVegas:Hair_Back
						{
							OFFSET 0.000000 3.231903 -17.524799
							CHANNELS 3 Xrotation Yrotation Zrotation
							End Site
							{
								OFFSET 0.000000 19.849884 0.000000
							}
						}
						JOINT newVegas:Hair_Front
						{
							OFFSET 0.000000 31.260406 4.573800
							CHANNELS 3 Xrotation Yrotation Zrotation
							JOINT newVegas:Hair_Front1
							{
								OFFSET 0.000000 2.284103 11.993300
								CHANNELS 3 Xrotation Yrotation Zrotation
								JOINT newVegas:Hair_Front2
								{
									OFFSET 0.000000 2.284103 11.993300
									CHANNELS 3 Xrotation Yrotation Zrotation
									End Site
									{
										OFFSET 0.000000 12.208862 0.000000
									}
								}
							}
						}
						JOINT newVegas:Jowel
						{
							OFFSET 0.000000 -7.458206 6.864100
							CHANNELS 3 Xrotation Yrotation Zrotation
							End Site
							{
								OFFSET 0.000000 19.849884 0.000000
							}
						}
					}
				}
				JOINT newVegas:LeftShoulder
				{
					OFFSET 15.263000 10.923401 -0.547700
					CHANNELS 3 Xrotation Yrotation Zrotation
					JOINT newVegas:LeftArm
					{
						OFFSET 25.438599 -2.830597 -13.032500
						CHANNELS 3 Xrotation Yrotation Zrotation
						JOINT newVegas:LeftForeArm
						{
							OFFSET 29.960503 0.000000 0.000000
							CHANNELS 3 Xrotation Yrotation Zrotation
							JOINT newVegas:LeftHand
							{
								OFFSET 27.849251 0.000000 0.000000
								CHANNELS 3 Xrotation Yrotation Zrotation
								JOINT newVegas:LeftHandThumb1
								{
									OFFSET 4.487587 -3.305161 6.305391
									CHANNELS 3 Xrotation Yrotation Zrotation
									JOINT newVegas:LeftHandThumb2
									{
										OFFSET 5.480453 -3.164139 3.164143
										CHANNELS 3 Xrotation Yrotation Zrotation
										JOINT newVegas:LeftHandThumb3
										{
											OFFSET 5.159721 -2.978973 2.978967
											CHANNELS 3 Xrotation Yrotation Zrotation
											End Site
											{
												OFFSET 2.494507 5.926697 1.738678
											}
										}
									}
								}
								JOINT newVegas:LeftHandIndex1
								{
									OFFSET 18.578728 -0.527832 5.208049
									CHANNELS 3 Xrotation Yrotation Zrotation
									JOINT newVegas:LeftHandIndex2
									{
										OFFSET 3.192009 0.000000 0.000000
										CHANNELS 3 Xrotation Yrotation Zrotation
										JOINT newVegas:LeftHandIndex3
										{
											OFFSET 3.835129 0.000000 0.000000
											CHANNELS 3 Xrotation Yrotation Zrotation
											End Site
											{
												OFFSET -0.034599 3.816971 0.371180
											}
										}
									}
								}
								JOINT newVegas:LeftHandMiddle1
								{
									OFFSET 18.476105 0.000000 0.000000
									CHANNELS 3 Xrotation Yrotation Zrotation
									JOINT newVegas:LeftHandMiddle2
									{
										OFFSET 3.324875 0.000000 0.000000
										CHANNELS 3 Xrotation Yrotation Zrotation
										JOINT newVegas:LeftHandMiddle3
										{
											OFFSET 4.596550 0.000000 0.000000
											CHANNELS 3 Xrotation Yrotation Zrotation
											End Site
											{
												OFFSET 0.057701 4.578827 0.399218
											}
										}
									}
								}
								JOINT newVegas:LeftHandRing1
								{
									OFFSET 17.732719 0.121887 -4.201567
									CHANNELS 3 Xrotation Yrotation Zrotation
									JOINT newVegas:LeftHandRing2
									{
										OFFSET 2.733170 0.000000 0.000000
										CHANNELS 3 Xrotation Yrotation Zrotation
										JOINT newVegas:LeftHandRing3
										{
											OFFSET 3.178268 0.000000 0.000000
											CHANNELS 3 Xrotation Yrotation Zrotation
											End Site
											{
												OFFSET 0.119102 3.170624 0.185394
											}
										}
									}
								}
								JOINT newVegas:LeftHandPinky1
								{
									OFFSET 15.989624 -0.606689 -7.535461
									CHANNELS 3 Xrotation Yrotation Zrotation
									JOINT newVegas:LeftHandPinky2
									{
										OFFSET 2.538986 0.000000 0.000000
										CHANNELS 3 Xrotation Yrotation Zrotation
										JOINT newVegas:LeftHandPinky3
										{
											OFFSET 2.593102 0.000000 0.000000
											CHANNELS 3 Xrotation Yrotation Zrotation
											End Site
											{
												OFFSET -0.150902 2.584198 0.152708
											}
										}
									}
								}
							}
							JOINT newVegas:Left_Sleeve
							{
								OFFSET 0.267448 -0.649796 0.577675
								CHANNELS 3 Xrotation Yrotation Zrotation
								End Site
								{
									OFFSET 0.000000 15.991241 0.000000
								}
							}
							JOINT newVegas:Left_CapeC
							{
								OFFSET 15.715958 -8.608795 -6.935905
								CHANNELS 3 Xrotation Yrotation Zrotation
								JOINT newVegas:Left_CapeC1
								{
									OFFSET 0.000000 -8.688499 0.000000
									CHANNELS 3 Xrotation Yrotation Zrotation
									End Site
									{
										OFFSET 0.000000 8.688499 0.000000
									}
								}
							}
						}
						JOINT newVegas:Left_CapeB
						{
							OFFSET 26.118385 -8.608795 -7.079235
							CHANNELS 3 Xrotation Yrotation Zrotation
							JOINT newVegas:Left_CapeB1
							{
								OFFSET 0.000000 -8.688499 0.000000
								CHANNELS 3 Xrotation Yrotation Zrotation
								End Site
								{
									OFFSET 0.000000 8.688499 0.000000
								}
							}
						}
						JOINT newVegas:Left_CapeA
						{
							OFFSET 5.115639 -8.608795 -10.395809
							CHANNELS 3 Xrotation Yrotation Zrotation
							JOINT newVegas:Left_CapeA1
							{
								OFFSET 0.000000 -8.688499 0.000000
								CHANNELS 3 Xrotation Yrotation Zrotation
								End Site
								{
									OFFSET 0.000000 8.688499 0.000000
								}
							}
						}
					}
				}
				JOINT newVegas:RightShoulder
				{
					OFFSET -15.263000 10.923401 -0.547700
					CHANNELS 3 Xrotation Yrotation Zrotation
					JOINT newVegas:RightArm
					{
						OFFSET -25.438599 -2.830597 -13.032500
						CHANNELS 3 Xrotation Yrotation Zrotation
						JOINT newVegas:RightForeArm
						{
							OFFSET -29.960503 0.000000 0.000000
							CHANNELS 3 Xrotation Yrotation Zrotation
							JOINT newVegas:RightHand
							{
								OFFSET -27.849251 0.000000 0.000000
								CHANNELS 3 Xrotation Yrotation Zrotation
								JOINT newVegas:RightHandThumb1
								{
									OFFSET -4.487587 -3.305161 6.305391
									CHANNELS 3 Xrotation Yrotation Zrotation
									JOINT newVegas:RightHandThumb2
									{
										OFFSET -5.480453 -3.164139 3.164143
										CHANNELS 3 Xrotation Yrotation Zrotation
										JOINT newVegas:RightHandThumb3
										{
											OFFSET -5.159721 -2.978973 2.978967
											CHANNELS 3 Xrotation Yrotation Zrotation
											End Site
											{
												OFFSET -2.494507 5.926697 1.738678
											}
										}
									}
								}
								JOINT newVegas:RightHandIndex1
								{
									OFFSET -18.578728 -0.527832 5.208049
									CHANNELS 3 Xrotation Yrotation Zrotation
									JOINT newVegas:RightHandIndex2
									{
										OFFSET -3.192009 0.000000 0.000000
										CHANNELS 3 Xrotation Yrotation Zrotation
										JOINT newVegas:RightHandIndex3
										{
											OFFSET -3.835129 0.000000 0.000000
											CHANNELS 3 Xrotation Yrotation Zrotation
											End Site
											{
												OFFSET 0.034599 3.816971 0.371180
											}
										}
									}
								}
								JOINT newVegas:RightHandMiddle1
								{
									OFFSET -18.476105 0.000000 0.000000
									CHANNELS 3 Xrotation Yrotation Zrotation
									JOINT newVegas:RightHandMiddle2
									{
										OFFSET -3.324875 0.000000 0.000000
										CHANNELS 3 Xrotation Yrotation Zrotation
										JOINT newVegas:RightHandMiddle3
										{
											OFFSET -4.596550 0.000000 0.000000
											CHANNELS 3 Xrotation Yrotation Zrotation
											End Site
											{
												OFFSET -0.057701 4.578827 0.399218
											}
										}
									}
								}
								JOINT newVegas:RightHandRing1
								{
									OFFSET -17.732719 0.121887 -4.201567
									CHANNELS 3 Xrotation Yrotation Zrotation
									JOINT newVegas:RightHandRing2
									{
										OFFSET -2.733170 0.000000 0.000000
										CHANNELS 3 Xrotation Yrotation Zrotation
										JOINT newVegas:RightHandRing3
										{
											OFFSET -3.178268 0.000000 0.000000
											CHANNELS 3 Xrotation Yrotation Zrotation
											End Site
											{
												OFFSET -0.119102 3.170624 0.185394
											}
										}
									}
								}
								JOINT newVegas:RightHandPinky1
								{
									OFFSET -15.989624 -0.606689 -7.535461
									CHANNELS 3 Xrotation Yrotation Zrotation
									JOINT newVegas:RightHandPinky2
									{
										OFFSET -2.538986 0.000000 0.000000
										CHANNELS 3 Xrotation Yrotation Zrotation
										JOINT newVegas:RightHandPinky3
										{
											OFFSET -2.593102 0.000000 0.000000
											CHANNELS 3 Xrotation Yrotation Zrotation
											End Site
											{
												OFFSET 0.150902 2.584198 0.152708
											}
										}
									}
								}
							}
							JOINT newVegas:Right_CapeC
							{
								OFFSET -15.715958 -8.608795 -6.935905
								CHANNELS 3 Xrotation Yrotation Zrotation
								JOINT newVegas:Right_CapeC1
								{
									OFFSET 0.000000 -8.688499 0.000000
									CHANNELS 3 Xrotation Yrotation Zrotation
									End Site
									{
										OFFSET 0.000000 8.688499 0.000000
									}
								}
							}
							JOINT newVegas:Right_Sleeve
							{
								OFFSET -0.267448 -0.649994 0.577675
								CHANNELS 3 Xrotation Yrotation Zrotation
								End Site
								{
									OFFSET 0.000000 15.991302 0.000000
								}
							}
						}
						JOINT newVegas:Right_CapeA
						{
							OFFSET -5.115540 -8.608795 -10.395824
							CHANNELS 3 Xrotation Yrotation Zrotation
							JOINT newVegas:Right_CapeA1
							{
								OFFSET 0.000000 -8.688499 0.000000
								CHANNELS 3 Xrotation Yrotation Zrotation
								End Site
								{
									OFFSET 0.000000 8.688499 0.000000
								}
							}
						}
						JOINT newVegas:Right_CapeB
						{
							OFFSET -26.118187 -8.608795 -7.079266
							CHANNELS 3 Xrotation Yrotation Zrotation
							JOINT newVegas:Right_CapeB1
							{
								OFFSET 0.000000 -8.688499 0.000000
								CHANNELS 3 Xrotation Yrotation Zrotation
								End Site
								{
									OFFSET 0.000000 8.688499 0.000000
								}
							}
						}
					}
				}
				JOINT newVegas:Left_Collar
				{
					OFFSET 18.625099 8.655502 8.828100
					CHANNELS 3 Xrotation Yrotation Zrotation
					JOINT newVegas:Left_Collar1
					{
						OFFSET 14.783401 10.540405 -1.259500
						CHANNELS 3 Xrotation Yrotation Zrotation
						End Site
						{
							OFFSET 0.000000 18.199875 0.000000
						}
					}
				}
				JOINT newVegas:Collar_Back
				{
					OFFSET 0.000000 15.630707 -20.132601
					CHANNELS 3 Xrotation Yrotation Zrotation
					End Site
					{
						OFFSET 0.000000 22.523010 0.000000
					}
				}
				JOINT newVegas:Left_Peck
				{
					OFFSET 17.239599 -5.132599 25.482599
					CHANNELS 3 Xrotation Yrotation Zrotation
					End Site
					{
						OFFSET 0.000000 22.523010 0.000000
					}
				}
				JOINT newVegas:Right_Peck
				{
					OFFSET -17.239599 -5.132202 25.482599
					CHANNELS 3 Xrotation Yrotation Zrotation
					End Site
					{
						OFFSET 0.000000 22.523010 0.000000
					}
				}
				JOINT newVegas:Right_Collar
				{
					OFFSET -18.625099 8.655792 8.828100
					CHANNELS 3 Xrotation Yrotation Zrotation
					JOINT newVegas:Right_Collar1
					{
						OFFSET -14.783401 10.539993 -1.259500
						CHANNELS 3 Xrotation Yrotation Zrotation
						End Site
						{
							OFFSET 0.000000 18.199631 0.000000
						}
					}
				}
			}
		}
		JOINT newVegas:Belly
		{
			OFFSET 0.000000 -6.540398 9.014299
			CHANNELS 3 Xrotation Yrotation Zrotation
			End Site
			{
				OFFSET 0.000000 11.566666 0.000000
			}
		}
	}
	JOINT newVegas:ElvisFacialAnim_Joint
	{
		OFFSET 1.000000 -95.330101 -8.825800
		CHANNELS 3 Xrotation Yrotation Zrotation
		End Site
		{
			OFFSET 0.000000 35.315800 0.000000
		}
	}
}
MOTION
Frames: 4
Frame Time: 0.033333
0.047636 95.253616 4.395756 -3.753883 -5.231967 -3.171590 -0.000000 0.000000 -0.000000 -14.985498 13.497749 12.524745 20.455486 1.788280 4.638709 -2.597023 1.115008 -9.510375 -0.000000 0.000000 0.000000 -0.000000 0.000001 0.000001 4.296939 -10.104028 2.821832 4.999771 -9.662580 -3.266159 -4.845225 -1.879853 4.156178 0.000000 -0.000000 0.000000 -0.000000 -0.000000 -0.000000 3.309462 1.517583 2.139786 1.146035 0.329155 1.552971 1.123712 0.356192 1.550933 1.124562 -0.019071 0.092144 1.124561 -0.019073 0.092145 0.000000 -0.000000 0.000000 1.124636 -0.019075 0.092146 1.124563 -0.019069 0.092145 0.000000 0.000000 0.000000 0.000000 -0.000000 0.000000 1.046095 -17.446009 -12.316926 3.915820 -19.989404 -69.767575 0.000012 -1.453262 -0.000016 -33.228300 -1.359642 -6.191123 -0.666106 2.158571 4.837353 11.859644 25.414847 17.056659 -0.000000 -0.000002 -0.000003 0.020433 -0.966551 -7.590929 0.267893 1.752972 -17.376536 -0.000000 -0.000001 0.000000 -0.077457 2.661814 -15.698688 0.268774 1.755770 -17.405243 0.000000 -0.000000 -0.000001 0.137966 3.644574 -21.134825 0.386578 2.094654 -20.910465 -0.000000 0.000001 -0.000004 0.923047 5.558214 -27.126885 0.268798 1.755832 -17.405887 -0.000001 -0.000005 0.000000 -0.000000 0.000000 0.000001 -0.000000 0.000000 0.000001 -0.000001 0.000000 0.000001 0.000003 -0.000001 0.000001 0.000003 0.000000 0.000001 0.000003 -0.000001 0.000001 0.000001 -0.000000 0.000001 1.189529 15.344119 14.707062 13.162755 27.550896 58.780963 -0.000001 6.689810 0.000003 -20.174746 -0.523596 6.792879 -1.664528 -0.169109 -4.216935 12.708004 -29.838173 -16.127707 0.000001 -0.000000 -0.000000 0.037640 1.264476 6.828358 0.213864 -1.396482 17.412927 0.000000 0.000001 -0.000002 -0.135879 -2.206384 14.998764 0.214469 -1.398404 17.437697 0.000001 0.000000 0.000002 0.031313 -3.078189 20.463786 0.308451 -1.668281 20.948523 -0.000000 0.000002 0.000000 0.748333 -4.885960 26.472201 0.214429 -1.398278 17.436013 -0.000000 0.000003 0.000000 0.000002 -0.000000 0.000000 0.000002 -0.000000 0.000000 0.000001 -0.000000 0.000000 -0.000001 0.000000 -0.000001 -0.000001 0.000000 -0.000001 -0.000001 0.000000 -0.000001 -0.000001 -0.000000 -0.000001 -0.000000 -0.000000 -0.000000 -0.000000 -0.000000 -0.000000 -0.000000 -0.000000 -0.000000 -0.000000 -0.000000 -0.000000 -0.000000 -0.000000 -0.000000 -0.000000 -0.000000 -0.000000 -0.000000 -0.000000 -0.000000 0.000000 -0.000000 -0.000000 -0.000000 0.000000 -0.000000 
0.638016 95.002861 4.937835 -3.450077 -4.447346 -2.971629 -0.000000 0.000000 0.000000 -16.238111 13.631840 11.956746 22.679944 0.957288 4.832955 -3.877012 1.233555 -8.818826 -0.000000 -0.000001 0.000000 -0.000000 -0.000001 0.000000 3.294061 -9.345954 2.168048 7.529503 -9.915713 -3.378271 -6.597095 -3.321513 5.013952 -0.000000 0.000002 0.000000 0.000000 -0.000000 0.000000 3.517028 1.292389 1.989529 0.923967 0.241562 1.729402 0.902545 0.271893 1.731318 1.114805 -0.050939 0.108501 1.114806 -0.050940 0.108503 0.000000 0.000000 0.000000 1.114877 -0.050940 0.108503 1.114801 -0.050945 0.108505 -0.000000 -0.000000 0.000000 0.000000 0.000000 0.000000 0.994825 -16.140664 -12.406526 3.672925 -16.182187 -70.058603 -0.000001 -1.327680 0.000005 -26.859109 -2.250857 -5.563815 -0.666103 2.158568 4.837352 11.859640 25.414861 17.056666 0.000002 -0.000006 -0.000005 0.028134 -0.892425 -8.296195 0.463268 2.285182 -22.917578 0.000002 -0.000001 -0.000001 -0.073426 2.730645 -16.347045 0.465001 2.289249 -22.960827 0.000000 -0.000000 -0.000004 0.152718 3.708856 -21.765976 0.613052 2.610961 -26.422957 -0.000001 0.000001 0.000003 0.954392 5.618129 -27.792663 0.461092 2.280012 -22.862801 0.000001 -0.000002 -0.000001 0.000001 0.000000 0.000000 0.000001 0.000000 0.000000 0.000000 0.000000 0.000000 0.000001 -0.000002 0.000001 0.000001 -0.000002 0.000000 0.000001 -0.000002 0.000001 -0.000000 -0.000001 0.000000 1.188116 14.243025 14.657991 12.873477 25.935369 58.557568 -0.000009 7.155558 -0.000022 -18.133650 0.593795 7.034645 -1.163802 -0.081412 -3.957023 12.842812 -28.739517 -15.880786 -0.000000 0.000002 0.000001 0.001536 1.489585 7.064664 0.250095 -1.507115 18.842865 -0.000001 0.000000 0.000001 -0.136275 -2.223982 15.212757 0.249898 -1.506547 18.835368 0.000002 0.000001 -0.000000 0.120450 -3.323658 20.663136 0.350433 -1.773995 22.346036 -0.000000 0.000001 -0.000004 0.853819 -5.077756 26.679031 0.250705 -1.508891 18.865957 0.000000 0.000005 0.000002 -0.000001 0.000000 -0.000000 0.000001 0.000000 -0.000000 -0.000001 0.000000 -0.000000 0.000001 0.000001 0.000000 0.000001 0.000001 0.000000 0.000001 0.000001 0.000000 0.000001 0.000001 0.000000 0.000000 -0.000000 -0.000000 0.000000 -0.000000 -0.000000 0.000000 -0.000000 -0.000000 0.000000 -0.000000 -0.000000 0.000000 -0.000000 -0.000000 0.000000 -0.000000 -0.000000 0.000000 -0.000000 -0.000000 0.000000 -0.000000 -0.000000 -0.000000 0.000000 0.000000 
1.228998 94.914314 5.490593 -3.075791 -3.615220 -2.589545 0.000000 -0.000000 0.000000 -16.591146 13.995172 11.077810 23.152572 -0.008395 4.876827 -4.350971 1.300382 -8.114538 -0.000000 0.000000 -0.000000 -0.000000 0.000000 -0.000000 3.178383 -8.267923 1.638296 8.065546 -9.906511 -3.598736 -7.072622 -5.486707 5.668781 -0.000000 -0.000002 -0.000000 0.000001 -0.000002 0.000000 3.745764 1.021363 1.706659 0.842726 0.133322 1.759593 0.822916 0.165274 1.766194 1.092099 -0.080794 0.134012 1.092098 -0.080796 0.134013 -0.000000 0.000000 0.000000 1.092101 -0.080796 0.134014 1.092170 -0.080793 0.134014 0.000000 0.000000 -0.000000 -0.000000 0.000000 0.000000 0.964281 -14.992158 -12.371037 3.284900 -12.506111 -70.254096 -0.000005 -1.187210 0.000000 -20.103955 -3.183507 -4.735859 -0.666097 2.158569 4.837342 11.859634 25.414862 17.056661 0.000005 -0.000000 -0.000005 0.036185 -0.799331 -9.196955 0.750324 2.870396 -29.293213 -0.000001 -0.000000 0.000003 -0.067831 2.809983 -17.096566 0.754394 2.877625 -29.374461 -0.000001 -0.000001 -0.000002 0.169978 3.780209 -22.468452 0.930916 3.170445 -32.719413 0.000001 -0.000001 -0.000000 0.992574 5.688950 -28.583706 0.736458 2.845554 -29.015142 0.000001 -0.000005 0.000002 -0.000002 0.000000 0.000000 -0.000002 0.000000 0.000000 -0.000002 0.000001 0.000000 -0.000002 -0.000002 -0.000001 -0.000002 -0.000002 -0.000001 -0.000002 -0.000002 -0.000001 -0.000003 -0.000001 -0.000001 1.204345 12.904830 14.537433 12.223793 24.123048 58.713754 0.000002 7.994446 0.000014 -16.336113 1.955918 7.398935 -0.655958 0.046943 -3.669104 12.980946 -27.576513 -15.629426 0.000001 -0.000002 -0.000001 -0.053982 1.753442 7.088137 0.292360 -1.625649 20.388671 -0.000001 -0.000000 0.000000 -0.136884 -2.221703 15.212395 0.289588 -1.618179 20.290991 -0.000000 0.000002 0.000001 0.211918 -3.565838 20.647541 0.396842 -1.882903 23.800767 0.000001 0.000004 0.000002 0.970464 -5.260580 26.671052 0.293006 -1.627386 20.411793 -0.000000 0.000005 -0.000000 -0.000001 0.000000 -0.000001 -0.000001 0.000000 0.000000 -0.000001 0.000000 -0.000000 0.000001 0.000000 -0.000001 0.000001 0.000000 -0.000001 0.000001 0.000000 -0.000001 0.000001 -0.000000 -0.000001 -0.000000 0.000000 -0.000000 -0.000000 0.000000 -0.000000 -0.000000 0.000000 -0.000000 -0.000000 0.000000 -0.000000 -0.000000 0.000000 -0.000000 -0.000000 0.000000 -0.000000 -0.000000 0.000000 -0.000000 -0.000000 -0.000000 -0.000000 0.000000 -0.000000 0.000000 
1.801421 94.900398 6.030939 -2.756804 -2.922427 -2.052720 0.000000 0.000000 -0.000000 -16.291366 14.570766 9.983066 22.659117 -1.011326 4.875517 -4.404164 1.338409 -7.488242 0.000000 -0.000001 -0.000000 -0.000000 -0.000000 -0.000000 0.752073 -6.879857 2.098058 12.761016 -9.934145 -3.951090 -9.677552 -8.924619 2.503207 -0.000000 -0.000002 -0.000000 -0.000001 -0.000002 -0.000000 4.190107 0.744571 1.373423 0.872287 0.003036 1.597150 0.854630 0.035445 1.608285 1.050324 -0.103380 0.168259 1.050325 -0.103379 0.168258 -0.000000 0.000000 -0.000000 1.050253 -0.103375 0.168258 1.050465 -0.103383 0.168260 -0.000000 -0.000000 -0.000000 -0.000000 0.000000 -0.000000 0.933642 -13.991979 -12.278036 2.783797 -9.065069 -70.095725 -0.000001 -1.040395 -0.000015 -12.840822 -4.451499 -3.642059 -0.666103 2.158569 4.837354 11.859637 25.414859 17.056690 0.000001 -0.000001 -0.000006 0.045531 -0.693961 -10.231811 1.135079 3.467219 -36.245041 -0.000004 -0.000002 0.000003 -0.060563 2.896454 -17.915555 1.143280 3.478350 -36.380473 -0.000001 0.000002 -0.000001 0.189413 3.856280 -23.219959 1.343149 3.733948 -39.557273 -0.000001 0.000003 0.000001 1.036095 5.766946 -29.460686 1.099213 3.417834 -35.647775 0.000000 -0.000003 -0.000001 -0.000001 0.000000 -0.000000 -0.000001 0.000000 -0.000000 -0.000002 0.000000 -0.000000 -0.000000 0.000001 0.000000 -0.000000 0.000001 0.000000 -0.000000 0.000001 0.000000 -0.000000 0.000001 -0.000000 1.228279 11.421850 14.349322 11.234789 22.157405 59.400844 -0.000002 9.123991 -0.000016 -14.917922 3.670305 7.780948 -0.142669 0.210469 -3.359032 13.120906 -26.359959 -15.377403 0.000001 -0.000004 -0.000001 -0.123107 2.049692 6.936619 0.340704 -1.750188 22.030082 -0.000001 0.000002 0.000003 -0.137644 -2.203054 15.035350 0.333547 -1.732389 21.794381 -0.000004 0.000000 -0.000001 0.303026 -3.806175 20.454782 0.447647 -1.994066 25.302634 0.000003 -0.000001 -0.000001 1.080280 -5.444202 26.485095 0.341404 -1.751896 22.052862 0.000001 -0.000000 0.000000 0.000001 0.000000 -0.000000 0.000001 0.000001 -0.000000 0.000001 0.000000 -0.000000 -0.000004 0.000001 0.000000 -0.000004 0.000001 0.000001 -0.000004 0.000001 0.000000 -0.000004 0.000001 0.000001 0.000000 0.000000 -0.000000 0.000000 0.000000 -0.000000 0.000000 0.000000 -0.000000 0.000000 0.000000 -0.000000 0.000000 0.000000 -0.000000 0.000000 0.000000 -0.000000 0.000000 0.000000 -0.000000 0.000000 -0.000000 -0.000000 0.000000 0.000000 -0.000000 
